<?xml version="1.0" encoding="utf-8"?>
<!-- Generator: Adobe Illustrator 27.1.1, SVG Export Plug-In . SVG Version: 6.00 Build 0)  -->
<svg version="1.1" baseProfile="basic" id="Layer_1"
	 xmlns="http://www.w3.org/2000/svg" xmlns:xlink="http://www.w3.org/1999/xlink" x="0px" y="0px" viewBox="0 0 341.9 520.7"
	 xml:space="preserve">
<style type="text/css">
	.st0{fill-rule:evenodd;clip-rule:evenodd;}
</style>
<g>
	<path class="st0" d="M236.9,483.4c0,14.2-13.3,13.7-13.3,0.7l0-26.8c0,0-4.6,0-5.1,0c0.7,0.4,1,1.9,1.1,3.8
		c0.1,0.8,0.4,23.2,0.4,24.7c0.8,13.4,17.3,16,18.3-1.5c0.1-1.6,0.7-17.9,0.8-19c0.2-3.2,0.5-7.1,1.4-8l-3.7,0L236.9,483.4z"/>
	<path class="st0" d="M271,492.6v-14.9h11.7v-2.3H271l0.3-16.3c7.8,0.1,11.4,2.1,11.4,2.1v-3.8H266c0,0,1,1.1,1.1,3.8
		c0,0,0.3,33.5,0.3,33.6c-0.4-0.7-12.2-17.5-12.2-17.5c9.7-2.2,16.6-24.5-11.3-19.8c0.5,0.7,1,1.8,1,4l-0.8,30.3
		c-0.1,1.3-0.4,2.5-0.7,3h4.4l1.5-36.1c10.8-3.3,15.7,16.3,1.3,19.4c1,1.4,15.1,18.8,15.7,19.6c1.9,2.5,7.2,4.7,8.4,5.2
		c-2.5-1.8-6.5-6.7-6.9-7.6c1,0,15.7,0,15.7,0l1.4-3.6c0,0-4.8,2-12.4,2C271.9,493.7,271,493.8,271,492.6z"/>
	<path class="st0" d="M311,457.6v32.8l-20.4-32.8c0,0-4.7,0-5.6,0c0.3,0.4,2.1,3.1,2.3,3.5c0,1-0.9,30.6-0.9,30.6
		c-0.1,1.4-0.1,2.4-0.5,3.5c0.6,0,2.8,0,2.8,0l0-31.8c0,0,22.9,34.2,23.3,34.9c0-1.3,1.2-36.1,1.2-36.1c0-0.8,0-3,1.8-3
		c0,0,5.8,0,5.8,0l0.2,33.4c-0.1,1.3-0.2,1.6-0.4,2.5c0,0,4.1,0,4.1,0c-0.2-0.9-0.3-1.3-0.3-2.5l1-33.5c3.5,0,5.6,0,8.7,1.1v-2.7
		H311z"/>
	<path class="st0" d="M187,505.9c-2,0-2.1-1.2-1.8-2.6l12.3-60.3h-5.8c0.6,0.9,0.6,1.8,0.4,3.2l-2.1,11h-24.7v32.8L145,457.2h-5.6
		l2.3,3.5l-0.9,30.6c-0.1,1.3-0.5,2.9-0.8,3.5c0,0,3.1,0,3.1,0l0-31.8l23.3,34.9l1.4-36c0-0.8-0.3-2.6,1.4-2.7h5.3l0.2,32.6
		c0,1.3-0.1,2.1-0.4,3.1c0,0,4.3,0,4.3,0c-0.2-0.8-0.4-1.7-0.4-2.9l1-32.7c3.4,0,7.1,0.1,10.1,1.4l-8,43.2c-0.4,1.7-0.8,3-1.3,3.7
		h28.2l2.3-4.8C205.7,504.7,193.1,506,187,505.9z"/>
	<path class="st0" d="M135.5,457.2h-5.2c0.6,0.7,1.2,2.1,1.2,3.3c0,0,0.5,34.3,0.5,34.3c0,0,3.9,0,3.9,0c-0.2-0.1-0.8-1.7-0.8-2.2
		L135.5,457.2z"/>
	<path class="st0" d="M209.1,455.2L193,492.4c-0.4,0.7-1.1,2-1.5,2.4c0.2,0,2.8,0,3.3,0c0.2-0.5,6.7-17.2,6.7-17.2h8.2
		c0,0,3.9,16.2,4.2,17.2c0.7,0,3.3,0,3.9,0c-0.4-0.3-1.3-3-1.3-3L209.1,455.2z M202.4,475.6l4.4-11.3l2.6,11.3H202.4z"/>
	<path class="st0" d="M121.3,456l-14.8,33.2c0,0-0.5-3-3.3-7.1l-12.6-19.3c-8.9-14.2,10.3-30.6,20.9-10.7l1.2-5.1
		c-11.9-11.8-28.8-4.1-28.7,11.4c-13.2-8.9-21.1,8.9-11.7,17.1l6.7,5.6c6.9,5.6,3.3,11.6-0.4,12.9c-3.9,1.3-6.9-0.5-10.6-5.8
		l-0.8,3.4c-3.3,1.7-7.9,2.5-12.7,2.2c-0.6,0-1.2-0.1-1.2-1.2l0.4-15.2h12.3v-2.2l-11.5,0c-0.7,0-0.7-0.1-0.7-0.9l0.3-15.8
		c2.8-0.4,9.9,1,11.9,2.2v-3.5H47.2L36,488.4l-5.2-32.5c0.7-1.1,6.1-9.7,6.4-10.2c0.4-0.6,2.6-3.1,2.6-3.1h-4.5
		c0,0-17.3,30.9-17,30.3c-0.3-1.4-5.4-29.6-5.6-30.6H8.4c1.4,1.2,1.9,9,4.6,26.9c0,0,1.2,5.1,0.3,10.2L9,505.1
		c-0.2,0.9-1.1,2.1-1.3,2.3h5.3c-0.4-0.5-0.7-2.3-0.5-3.2c0.2-1,5.6-26.4,5.9-27.2c0.5-1.7,0.8-2.4,1.4-3.4
		c0.9-1.4,5.8-9.5,6.9-11.3c0,0,0.5-0.8,0.7,0.1l6.7,34.3l15.1-37.8c0.2-0.5,0.5-0.5,0.5,0.1l0,33.2c0,0.9-0.3,2.1-0.6,2.8h17.1
		l0.7-2.9c2.6,2.1,7.1,4.1,10.9,3.6c8.4-1,10.5-12.4,4.1-17.8l-8.8-7.8c-5.9-5.6,0.5-20.8,11.2-6.4l15.7,21.7
		c10.7,15.8-9.5,33.7-21.5,11l-1.4,5.4c9.1,9.6,22.5,10.5,28.2-3.1l8.4-20.8l8,0c0,0,3.9,17.1,3.9,17.1c0,0,4.2,0,4.2,0
		c-0.4-0.4-0.9-1.6-1.2-2.7L121.3,456z M114.5,475.4l4.3-10.7l2.4,10.7H114.5z"/>
</g>
<g>
	<path class="st0" d="M151,356.6c-1.9,24.2-7,52.2-16,72c40.8,0,81.6,0,122.4,0c1.1-8.5,4.5-14.7,6.4-22.4
		c-30.1,8.4-72.8,13.8-95.2,10.4c1.5-19.3,4.8-43.8,8.8-63.2c28.6-13.2,61.3-38.5,56.8-81.6c-2.6-24.8-19.3-37.1-34.4-51.2
		c2.2-14.6,5.1-28.5,7.2-43.2c-6.7-1.8-16.8-0.3-24.8-0.8c-3.2,8.3-3.5,19.4-5.6,28.8c-4.3-2.4-8.8-4.5-12-8
		c2.7-14.4,5.4-28.7,6.4-44.8c10.7-15.1,20.8-30.9,32.8-44.8c15.7,5.8,28.5,14.7,38.4,26.4c4-8.1,6.3-21.9,7.2-30.4
		c-10.2-4.7-22.8-7.1-35.2-9.6c16.8-28.5,37.8-52.8,56-80c0.3,0,0.5,0,0.8,0c0-0.8,0-1.6,0-2.4c-8.3,0-16.5,0-24.8,0
		c-16.5,27.5-33.7,54.3-51.2,80.8c-16.4-0.7-28.9,2.5-41.6,5.6c-8.6-28.8-16.7-57.9-25.6-86.4c-10.9,0-21.9,0-32.8,0
		c10.2,4,11.4,15.3,15.2,27.2c7.2,22.5,16.4,48,23.2,68c-17.3,14.7-44.6,39.9-31.2,72.8c7,17.1,23.2,24.8,36.8,36.8
		c-2.1,17.3-3.1,35.8-11.2,47.2c10.1,0,20.3,0,30.4,0c-0.2-9.3,0.3-23.3,1.6-33.6c4.9,1.3,8.2,4.1,11.2,7.2
		c-5,34.5-10.6,68.3-16.8,101.6c-38.9,3.2-59.5-12-77.6-29.6c-2.6,7-1.9,17.3-5.6,23.2c0,2.9,0,5.9,0,8.8
		C91.4,352.5,118,360.7,151,356.6z M194.2,254.2c29.1,18.4,19.6,69.8-13.6,77.6C185.3,306.1,189.3,279.7,194.2,254.2z M144.6,182.2
		c-19.9-8.4-26.9-44.5-7.2-58.4C147.3,138.9,149.2,160.1,144.6,182.2z M157.4,111.8c7.7-3.3,19.1-6.9,28.8-5.6
		c-6.1,11.5-13.7,21.5-20,32.8C161.9,131.3,160.3,120.8,157.4,111.8z"/>
</g>
</svg>
